<?xml version="1.0" standalone="no"?>
<!DOCTYPE svg PUBLIC "-//W3C//DTD SVG 20010904//EN"
 "http://www.w3.org/TR/2001/REC-SVG-20010904/DTD/svg10.dtd">
<svg version="1.0" xmlns="http://www.w3.org/2000/svg"
 width="700.000000pt" height="700.000000pt" viewBox="0 0 700.000000 700.000000"
 preserveAspectRatio="xMidYMid meet">
<metadata>
Created by potrace 1.14, written by Peter Selinger 2001-2017
</metadata>
<g transform="translate(0.000000,700.000000) scale(0.100000,-0.100000)"
fill="#000000" stroke="none">
<path d="M1093 6985 c-75 -21 -126 -49 -171 -95 -80 -80 -118 -176 -120 -298
-2 -131 27 -185 276 -522 35 -47 70 -94 78 -105 8 -11 73 -99 145 -195 72 -96
135 -183 140 -193 6 -10 -16 2 -48 26 -130 98 -729 500 -792 531 -108 55 -220
63 -336 24 -103 -34 -174 -100 -227 -207 -51 -106 -46 -264 11 -353 53 -84 88
-111 530 -415 201 -138 371 -255 376 -260 6 -4 39 -28 75 -52 333 -227 1537
-1072 1674 -1174 24 -18 79 -59 124 -92 45 -33 82 -65 82 -71 0 -22 -65 -72
-455 -350 -188 -135 -822 -578 -1190 -834 -77 -53 -167 -116 -200 -139 -33
-23 -85 -59 -115 -79 -30 -21 -91 -63 -135 -93 -81 -56 -133 -92 -370 -254
-338 -232 -385 -275 -425 -395 -27 -78 -23 -175 10 -262 76 -204 318 -306 525
-223 95 38 301 179 635 435 69 53 131 100 139 104 7 5 -18 -31 -56 -80 -78
-100 -127 -166 -308 -409 -69 -93 -136 -183 -148 -200 -76 -101 -133 -204
-142 -255 -37 -204 41 -396 189 -460 73 -32 209 -46 276 -27 115 31 126 38
210 133 77 86 267 329 556 709 71 94 134 177 141 185 7 8 87 114 179 235 323
425 631 830 651 855 10 12 166 216 256 334 28 36 314 403 343 439 12 15 24 27
28 27 7 0 71 -85 627 -844 263 -358 482 -655 486 -661 4 -5 51 -68 103 -140
52 -71 123 -168 158 -215 35 -47 71 -96 80 -109 9 -13 38 -51 63 -85 25 -33
120 -160 210 -281 388 -522 403 -539 508 -571 199 -60 400 11 480 171 40 80
50 132 48 249 l-3 112 -65 99 c-91 138 -201 292 -527 732 l-63 85 58 -42 c122
-89 681 -455 738 -483 240 -120 513 0 583 257 18 64 8 183 -21 247 -40 91
-105 148 -387 341 -184 126 -636 437 -709 489 -20 14 -78 54 -130 90 -51 35
-136 93 -187 129 -51 36 -149 103 -216 149 -68 47 -125 87 -128 91 -3 3 -34
26 -70 50 -130 88 -665 467 -863 612 -82 60 -153 105 -159 102 -6 -4 -8 -3 -5
3 4 6 -3 19 -14 29 l-20 18 23 21 c31 29 507 372 798 575 8 6 121 84 250 175
129 90 278 194 330 230 113 80 471 327 625 433 61 41 120 83 131 91 26 19 10
8 274 189 252 172 366 258 405 304 142 168 91 462 -99 573 -147 86 -307 82
-461 -10 -95 -58 -527 -373 -670 -489 -27 -22 -45 -34 -38 -26 6 8 68 92 137
185 70 94 133 178 142 188 8 10 50 66 92 124 257 350 252 341 252 480 0 179
-64 289 -207 360 -73 36 -80 37 -177 37 -81 0 -110 -4 -149 -22 -50 -22 -160
-125 -232 -217 -22 -27 -43 -52 -46 -55 -11 -10 -257 -328 -479 -620 -123
-162 -240 -316 -259 -341 -20 -26 -44 -58 -53 -70 -23 -31 -295 -389 -311
-409 -6 -9 -46 -60 -87 -115 -40 -55 -78 -104 -82 -110 -12 -15 -146 -190
-278 -365 -63 -84 -119 -158 -125 -164 -5 -6 -56 -72 -112 -147 -134 -177
-139 -182 -156 -172 -40 24 -175 200 -797 1038 -69 94 -137 186 -150 205 -14
19 -30 42 -37 50 -7 8 -52 69 -101 135 -420 569 -935 1249 -977 1291 -33 33
-67 56 -100 68 -69 24 -197 29 -262 11z"/>
</g>
</svg>
