<?xml version="1.0" encoding="UTF-8" standalone="no"?>

<!--
  -     Copyright (C) 2022-present Techlore
  -
  -     This program is free software: you can redistribute it and/or modify
  -     it under the terms of the GNU General Public License as published by
  -     the Free Software Foundation, either version 3 of the License, or
  -     (at your option) any later version.
  -
  -     This program is distributed in the hope that it will be useful,
  -     but WITHOUT ANY WARRANTY; without even the implied warranty of
  -     MERCHANTABILITY or FITNESS FOR A PARTICULAR PURPOSE.  See the
  -     GNU General Public License for more details.
  -
  -     You should have received a copy of the GNU General Public License
  -     along with this program.  If not, see <https://www.gnu.org/licenses/>.
  -->

<svg xmlns="http://www.w3.org/2000/svg" height="1080" width="1080">
    <path d="M501.5 15.5C625.7 9 739 40.5 841.5 110c131.9 96.5 205.7 226.7 221.5 390.5 8.2 184.4-58.3 335.3-199.5 452.5-129.6 97.2-274.3 130.2-434 99C293 1021.1 184.9 948.6 105 834.5 13.2 692.5-8.3 540.3 40.5 378c38-113.6 106-204.6 204-273 78-51.8 163.6-81.7 257-89.5z" fill="#F2F2F2"/>
    <path d="M511.5 33.5c178.4-3.7 322.6 64 432.5 203 92.7 127.6 121.7 268.6 87 423C994.6 793.8 917.8 898 800.5 972c-122.6 71.8-253 90.4-391 56C261.1 984.3 152.3 893.5 83 755.5c-51.1-110.4-62.1-224.7-33-343C87.6 280 164.8 177.5 281.5 105c71.1-42.1 147.7-65.9 230-71.5z" fill="#fe0201"/>
    <path d="M510.5 98.5c149.2-4.8 272.4 48.9 369.5 161 89.2 112.7 118.9 239.7 89 381-14.9 61.8-41.6 117.8-80 168-7.9 7.8-16.8 9-26.5 3.5C663 612.8 463.8 413.3 265 213.5c-3.4-9.2-1.6-17 5.5-23.5 71-53.7 151-84.2 240-91.5z" fill="#F2F2F2"/>
    <path d="M576.5 211.5c-19.3-0.1-38.7 0.3-58 1 11.8-1.5 23.8-2.1 36-2 7.5 0 14.8 0.3 22 1z" fill="#F2F2F2"/>
    <path d="M581.5 211.5c86.5 5.3 156 42 208.5 110 6.6 9.5 12.4 19.5 17.5 30 0 1.5-0.7 2.7-2 3.5-30.2 22.4-60.5 44.5-91 66.5-29.2-52.8-73.5-84.8-133-96v-114z" fill="#279AD5"/>
    <path d="M576.5 211.5h5v114h-4c-17-3.4-34-3.7-51-1-33.4 3.6-62.6 16.6-87.5 39-3.7-3.5-7.2-7.2-10.5-11v-116c28.5-13.2 58.5-21.2 90-24 19.3-0.7 38.7-1.1 58-1z" fill="#E91E63"/>
    <path d="M428.5 236.5v116c-24.3-23.6-48.3-47.6-72-72 21.4-18.7 45.4-33.4 72-44z" fill="#E91E63"/>
    <path d="M200.5 262.5c6.3-0.8 12 0.7 17 4.5L812 861.5c6.9 10.2 5.7 19.3-3.5 27.5-110.5 81.6-233.1 108.2-368 80C313.7 936.5 217.8 863.6 153 750.5c-60-114.4-70-233.1-30-356 16.1-44.9 38.4-86.2 67-124 2.9-3.5 6.4-6.2 10.5-8z" fill="#F2F2F2"/>
    <path d="M577.5 325.5c-9.7-0.5-19.3-1.2-29-2-7.3 0.8-14.6 1.1-22 1 17-2.7 34-2.4 51 1z" fill="#FAFAFA"/>
    <path d="M364.5 518.5h-127v-4c2.9-52.1 17.4-100.8 43.5-146 1.7-2.5 3.5-4.8 5.5-7 31 30.3 61.7 61 92 92-7.5 21.2-12.2 42.9-14 65z" fill="#E91E63"/>
    <path d="M237.5 514.5v4h127c-5.1 61.6 10.4 117.3 46.5 167 53.9 64.1 121.3 84.9 202.5 62.5 14.2-5.1 27.8-11.3 41-18.5 22.3 21.7 44.3 43.7 66 66-40.2 40.6-88.9 64.4-146 71.5-108 7.8-196.2-30-264.5-113.5-53.5-70.7-77.7-150.4-72.5-239z" fill="#FF9800"/>
    <path d="M830.5 530.5c1.3 74.8 1.3 149.8 0 225-0.6-0.1-0.9-0.5-1-1 1-74.5 1.3-149.2 1-224z" fill="#F2F2F2"/>
    <path d="M607.5 531.5h222v222c-34.6-34.1-69.1-68.5-103.5-103-0.5-9.3-0.7-18.7-0.5-28-9.3 0.2-18.7 0-28-0.5-30.2-30-60.2-60.2-90-90.5z" fill="#009688"/>
    <path d="M830.5 530.5c0.3 74.8 0 149.5-1 224v-223h-222c73.6-1 147.9-1.3 223-1z" fill="#009688"/>
    <path d="M726.5 801.5c21 20.3 41.7 41 62 62h-62v-62z" fill="#009688"/>
    <path d="M726.5 801.5v62h63c-21.2 1-42.5 1.3-64 1-0.3-21.7 0-42.7 1-63z" fill="#009688"/>
    <path d="M789.5 863.5c0.5 0.1 0.9 0.4 1 1-21.8 1.3-43.5 1.3-65 0 21.5 0.3 42.8 0 64-1z" fill="#F2F2F2"/>
</svg>
