<svg xmlns="http://www.w3.org/2000/svg" viewBox="0 0 500 500">
  <path fill="#fefefe" d="M243.41 473.96a222.49 222.49 0 01-115.71-36.2 225.3 225.3 0 01-31.56-24.87c-2.44-2.31-7.81-7.7-9.91-9.96a227.4 227.4 0 01-21.71-27.2c-1.33-1.93-1.66-2.49-1.5-2.49.03 0 1.14-.4 2.47-.89 29.3-10.7 68.99-18.74 113.07-22.88a620.6 620.6 0 0119.88-1.57c.02.02 11.63 20.1 25.78 44.62 14.15 24.52 25.75 44.58 25.78 44.58.03 0 11.63-20.06 25.78-44.59a7775.22 7775.22 0 0125.86-44.63c.26-.1 11.07.71 18.56 1.4 44.96 4.09 84.49 11.98 114.86 22.94 1.15.42 2.12.77 2.14.8.07.06-.22.52-1.88 2.96a226.86 226.86 0 01-21.55 26.95 223.48 223.48 0 01-119.68 66.79 227.87 227.87 0 01-33.88 4.12c-1.84.1-15.1.2-16.8.12zm96.19-164.1c-14.07-.72-28.06-5.83-40.72-14.87-10.35-7.4-19.6-17.43-26.78-29.07-12.88-20.87-19-46.38-17.07-71.1 2.31-29.37 16.04-55.03 36.97-69.1a67.33 67.33 0 0131.54-11.32c2.13-.22 8.2-.3 10.52-.15 16.01 1.04 31.53 7.51 45.19 18.86a100.7 100.7 0 0112.35 12.3 112.3 112.3 0 0118.98 32.71c7.25 19.35 9.42 40.66 6.16 60.4-2.96 17.93-10.31 34.2-21.09 46.69a71.63 71.63 0 01-29.25 20.58 67.8 67.8 0 01-26.8 4.06zm-52.82-83.1a15.91 15.91 0 0013.7-21.48 16.42 16.42 0 00-7.94-8.65 15.87 15.87 0 00-16.27 1.5c-.97.71-2.41 2.12-3.19 3.1a15.85 15.85 0 00-1.73 16.6 16.8 16.8 0 005.82 6.52c2.03 1.3 4.72 2.2 7.16 2.4.53.04 1.02.08 1.08.1l1.37-.1zm-133.14 82.03a67.66 67.66 0 01-23.17-5.34 86.12 86.12 0 01-8.1-4.13 75.13 75.13 0 01-21.52-19.58c-9.98-13.3-16.35-29.95-18.37-48-.8-7.15-.9-15.08-.3-22.46 1.96-23.62 11-46.49 25.26-63.84a106.49 106.49 0 0114.15-14.15c11.62-9.42 25.15-15.59 38.42-17.5a70.16 70.16 0 0117.53-.35c17.88 1.98 33.91 10.83 46.16 25.5 11.75 14.05 19.26 33.02 21.12 53.31.37 4.12.44 5.69.44 10.63 0 4.93-.06 6.47-.44 10.65-1.97 21.83-9.84 42.63-22.54 59.57a98.92 98.92 0 01-19.4 19.54c-8.98 6.75-18.77 11.53-28.75 14.04a68.27 68.27 0 01-11.77 1.96c-2.26.18-6.63.26-8.72.15zm63.83-81.73a15.93 15.93 0 0012.4-18.92 15.93 15.93 0 00-15.47-12.53 15.94 15.94 0 00-14.26 8.83 15.83 15.83 0 002.3 17.5 16.14 16.14 0 0010.16 5.34c.19.03 1.15.03 2.15.01a13.4 13.4 0 002.72-.23z"/>
  <path fill="#fab314" d="M244.04 499.94a254.8 254.8 0 01-22.46-1.56 249.71 249.71 0 01-26.27-4.38c-1.45-.3-4.13-.93-5.56-1.3a265.93 265.93 0 01-23.44-7.08 248.5 248.5 0 01-80.86-47.4 306.47 306.47 0 01-10.77-9.97l-.75-.76 9.14-9.16 9.14-9.15 1.85 1.78a226.88 226.88 0 0017.12 14.98A222.9 222.9 0 00250 474.06c7.27 0 11.95-.18 18.55-.72 57.09-4.67 109.91-30.96 148.44-73.88a226.82 226.82 0 0023.07-30.66 222.6 222.6 0 0033.62-105.03c.4-6.56.52-16.77.26-22.51a230.94 230.94 0 00-2.99-28.9l-.34-1.96 10.86-10.86a611.18 611.18 0 0110.93-10.8 251.08 251.08 0 017.16 46.4c.32 5.54.38 7.87.38 14.86 0 7-.06 9.32-.38 14.84a248.94 248.94 0 01-55.9 143.3 258.2 258.2 0 01-27.02 28.25 249.08 249.08 0 01-151.85 63.17c-4.98.3-7.01.35-13.33.38-3.51.02-6.85.02-7.42 0zm-19.98-107.73l-31.83-55.15-5.97-10.35 31.87-.03h63.74l31.87.03-5.97 10.35L250 437.01l-25.94-44.8z"/>
  <path fill="#279ad5" d="M470.57 210.15l-.65-3.31a223.03 223.03 0 00-43.53-95.06 230.34 230.34 0 00-16.3-18.6l-1.58-1.64 9.16-9.16 9.15-9.15 2.6 2.67a248.53 248.53 0 0162.67 111.5l.3 1.21-10.88 10.89c-9.64 9.64-10.9 10.86-10.94 10.65z"/>
  <path fill="#7cbb41" d="M406.98 90.08a237.41 237.41 0 00-11.18-10.24 223.68 223.68 0 00-56.35-35.36 221.94 221.94 0 00-46.33-14.4l-3.3-.67c-.14-.05 2.2-2.44 10.7-10.93L311.39 7.6l1.21.3a249.24 249.24 0 0170 30.07 250.34 250.34 0 0142 33.1l2.2 2.15-9.12 9.14c-5.03 5.02-9.16 9.13-9.18 9.13-.03 0-.71-.64-1.52-1.42z"/>
  <path fill="#ee5128" d="M71.48 425.02a248.58 248.58 0 01-50.14-73.76 250.05 250.05 0 01-20.9-86.03C.1 259.6.05 257.73.05 250s.05-9.6.4-15.23A250.66 250.66 0 0115.91 162a248.74 248.74 0 0117.43-36.92 251.68 251.68 0 0154-64.98 248.5 248.5 0 0166.3-40.88A250.45 250.45 0 01234.78.44C240.4.1 242.27.05 250 .05s9.6.05 15.23.4c11.32.69 22.4 2.11 33.45 4.3 4.77.94 12.37 2.67 12.57 2.86l-10.79 10.92-10.86 10.86-2.63-.44a225.97 225.97 0 00-80.48 1.19 222.84 222.84 0 00-78.56 31.9 225.65 225.65 0 00-65.88 65.89 223.1 223.1 0 00-24.81 51.56 224.46 224.46 0 00-10.77 86.43 223.07 223.07 0 0032.79 101.76 222.08 222.08 0 0030.36 38.84l2.58 2.66-9.11 9.13-9.17 9.13a76.8 76.8 0 01-2.44-2.42z"/>
  <path fill="#131313" d="M212.75 227.24c-3.57-.4-6.79-1.9-9.31-4.33a15.55 15.55 0 01-4.87-12.07 15.35 15.35 0 014.6-10.5 14.57 14.57 0 013.94-2.91 15.84 15.84 0 0122.8 11c.17.84.2 1.3.2 3.04.01 1.77-.02 2.2-.21 3.08a15.79 15.79 0 01-4.1 7.84 15.51 15.51 0 01-8.86 4.7c-1.1.2-3.17.27-4.19.15zm70.75-.63a15.87 15.87 0 01-13.44-12.89c-.26-1.36-.26-4.2 0-5.57a16.95 16.95 0 012.67-6.4c.36-.5 1.14-1.4 1.73-2a15.87 15.87 0 018.1-4.36c1.34-.3 4.61-.32 5.97-.04a15.92 15.92 0 0112.84 13.83c.16 1.35.07 3.55-.2 4.83a15.89 15.89 0 01-17.67 12.6z"/>
  <path fill="#100f0e" d="M62.32 372.38a223 223 0 01-33.94-89.33 227.48 227.48 0 01-1.81-49.65 222.7 222.7 0 0128.58-94.04 225.14 225.14 0 0151.25-61.32A223.29 223.29 0 01262 26.27a222.94 222.94 0 0198.63 28.88 225 225 0 0161.32 51.25A223.3 223.3 0 01473.73 262a223 223 0 01-36.28 110.7l-.2.24-2.13-.78c-16.34-5.98-37.54-11.5-59.89-15.57a641.1 641.1 0 00-70.59-8.65l-2.94-.23 6.08-10.55 6.09-10.57-127.74.03 6.1 10.6 6.09 10.6-3.89.29c-8.63.6-19.2 1.57-27.97 2.56-40.4 4.55-75.57 12.18-102.76 22.3l-.8.3zm283.03-62.42a66.4 66.4 0 0022.73-4.74c19.39-7.7 35.07-24.64 43.48-46.99 3.8-10.1 6-20.91 6.6-32.35.13-2.46.13-8.98 0-11.43a119.34 119.34 0 00-16.57-55.17 104.31 104.31 0 00-22.17-26.13c-12.76-10.66-27.6-17.2-42.5-18.74-3.95-.4-9.53-.45-13.14-.1-16.36 1.55-30.9 8.5-42.82 20.45-11.94 11.98-20.34 28.25-24.11 46.7-3.42 16.7-2.93 34.4 1.45 51.83 6.57 26.17 21.95 49.11 42.19 62.92 12.72 8.67 26.96 13.47 40.92 13.78l1.22.05 2.72-.08zm-182.07-1.3c14.22-1.47 27.39-6.75 39.55-15.9 23.72-17.82 39.42-47.64 42.14-80.02.4-4.8.52-12.03.26-16.16-.94-15.17-4.45-28.72-10.6-41-5.66-11.28-13.5-21.01-22.67-28.15a67.7 67.7 0 00-37.6-14.34c-2-.13-6.49-.13-8.5 0-17.14 1.1-33.71 8.47-48.06 21.36-2.1 1.88-6.2 6.05-8.08 8.18-14.68 16.78-24.15 38.33-27.1 61.72a102.7 102.7 0 00-.85 13.18c-.07 5.96.1 9.63.7 14.8 1.9 16.15 7.28 31.18 15.65 43.69 8.85 13.22 20.67 22.97 34.35 28.33a73 73 0 0010.43 3.12 79.8 79.8 0 009.3 1.31c1.88.14 9.3.06 11.08-.13z"/>
</svg>